<svg width="18" height="18" viewBox="0 0 18 18" fill="none" xmlns="http://www.w3.org/2000/svg">
<path d="M4.00714 9.00006C4.00714 8.58585 4.34293 8.25006 4.75714 8.25006H8.24976V4.75742C8.24976 4.3432 8.58554 4.00742 8.99976 4.00742C9.41397 4.00742 9.74976 4.3432 9.74976 4.75742V8.25006H13.2424C13.6566 8.25006 13.9924 8.58585 13.9924 9.00006C13.9924 9.41427 13.6566 9.75006 13.2424 9.75006H9.74975V13.2427C9.74975 13.6569 9.41397 13.9927 8.99975 13.9927C8.58554 13.9927 8.24976 13.6569 8.24976 13.2427V9.75006H4.75714C4.34293 9.75006 4.00714 9.41427 4.00714 9.00006Z" fill="#F6F2FF"/>
<path fill-rule="evenodd" clip-rule="evenodd" d="M4.31649 0.768819C7.40404 0.42374 10.5954 0.42374 13.683 0.768819C15.5094 0.972944 16.9843 2.41159 17.1991 4.24855C17.5683 7.40547 17.5683 10.5947 17.1991 13.7516C16.9843 15.5885 15.5094 17.0272 13.683 17.2313C10.5954 17.5764 7.40404 17.5764 4.31649 17.2313C2.49011 17.0272 1.01521 15.5885 0.80036 13.7516C0.43113 10.5947 0.43113 7.40547 0.80036 4.24855C1.01521 2.41159 2.49011 0.972944 4.31649 0.768819ZM13.5164 2.25954C10.5396 1.92683 7.45992 1.92683 4.4831 2.25954C3.33867 2.38744 2.42262 3.29069 2.29021 4.4228C1.93451 7.46395 1.93451 10.5362 2.29021 13.5773C2.42262 14.7094 3.33867 15.6127 4.4831 15.7406C7.45993 16.0733 10.5396 16.0733 13.5164 15.7406C14.6608 15.6127 15.5769 14.7094 15.7093 13.5773C16.065 10.5362 16.065 7.46395 15.7093 4.4228C15.5769 3.29069 14.6608 2.38744 13.5164 2.25954Z" fill="#F6F2FF"/>
</svg>
