<svg width="14" height="11" viewBox="0 0 14 11" fill="none" xmlns="http://www.w3.org/2000/svg">
<path d="M11.9 0H2.1C1.54305 0 1.0089 0.217299 0.615076 0.604092C0.221249 0.990886 0 1.51549 0 2.0625V8.9375C0 9.48451 0.221249 10.0091 0.615076 10.3959C1.0089 10.7827 1.54305 11 2.1 11H11.9C12.457 11 12.9911 10.7827 13.3849 10.3959C13.7788 10.0091 14 9.48451 14 8.9375V2.0625C14 1.51549 13.7788 0.990886 13.3849 0.604092C12.9911 0.217299 12.457 0 11.9 0ZM11.613 1.375L7.497 5.4175C7.43193 5.48194 7.35451 5.53308 7.2692 5.56799C7.1839 5.60289 7.09241 5.62086 7 5.62086C6.90759 5.62086 6.8161 5.60289 6.7308 5.56799C6.64549 5.53308 6.56807 5.48194 6.503 5.4175L2.387 1.375H11.613ZM12.6 8.9375C12.6 9.11984 12.5263 9.29471 12.395 9.42364C12.2637 9.55257 12.0857 9.625 11.9 9.625H2.1C1.91435 9.625 1.7363 9.55257 1.60503 9.42364C1.47375 9.29471 1.4 9.11984 1.4 8.9375V2.34437L5.516 6.38688C5.90975 6.77311 6.4435 6.99006 7 6.99006C7.5565 6.99006 8.09025 6.77311 8.484 6.38688L12.6 2.34437V8.9375Z" fill="#F6F2FF"/>
</svg>
