<svg width="14" height="17" viewBox="0 0 14 17" fill="none" xmlns="http://www.w3.org/2000/svg">
<path d="M7 9.35C6.76794 9.35 6.54538 9.43955 6.38128 9.59896C6.21719 9.75837 6.125 9.97457 6.125 10.2V12.75C6.125 12.9754 6.21719 13.1916 6.38128 13.351C6.54538 13.5104 6.76794 13.6 7 13.6C7.23206 13.6 7.45462 13.5104 7.61872 13.351C7.78281 13.1916 7.875 12.9754 7.875 12.75V10.2C7.875 9.97457 7.78281 9.75837 7.61872 9.59896C7.45462 9.43955 7.23206 9.35 7 9.35ZM11.375 5.95V4.25C11.375 3.12283 10.9141 2.04183 10.0936 1.2448C9.27312 0.447767 8.16032 0 7 0C5.83968 0 4.72688 0.447767 3.90641 1.2448C3.08594 2.04183 2.625 3.12283 2.625 4.25V5.95C1.92881 5.95 1.26113 6.21866 0.768845 6.69688C0.276562 7.1751 0 7.8237 0 8.5V14.45C0 15.1263 0.276562 15.7749 0.768845 16.2531C1.26113 16.7313 1.92881 17 2.625 17H11.375C12.0712 17 12.7389 16.7313 13.2312 16.2531C13.7234 15.7749 14 15.1263 14 14.45V8.5C14 7.8237 13.7234 7.1751 13.2312 6.69688C12.7389 6.21866 12.0712 5.95 11.375 5.95ZM4.375 4.25C4.375 3.5737 4.65156 2.9251 5.14384 2.44688C5.63613 1.96866 6.30381 1.7 7 1.7C7.69619 1.7 8.36387 1.96866 8.85616 2.44688C9.34844 2.9251 9.625 3.5737 9.625 4.25V5.95H4.375V4.25ZM12.25 14.45C12.25 14.6754 12.1578 14.8916 11.9937 15.051C11.8296 15.2104 11.6071 15.3 11.375 15.3H2.625C2.39294 15.3 2.17038 15.2104 2.00628 15.051C1.84219 14.8916 1.75 14.6754 1.75 14.45V8.5C1.75 8.27457 1.84219 8.05837 2.00628 7.89896C2.17038 7.73955 2.39294 7.65 2.625 7.65H11.375C11.6071 7.65 11.8296 7.73955 11.9937 7.89896C12.1578 8.05837 12.25 8.27457 12.25 8.5V14.45Z" fill="#F6F2FF"/>
</svg>
