<svg width="141" height="117" viewBox="0 0 141 117" fill="none" xmlns="http://www.w3.org/2000/svg">
<circle cx="70" cy="55" r="26" fill="url(#paint0_radial_213_56)" fill-opacity="0.3"/>
<circle cx="70" cy="55" r="22" fill="url(#paint1_radial_213_56)"/>
<g filter="url(#filter0_f_213_56)">
<path d="M81 50.5294C81 53.0309 78.9853 57 76.5 57C74.0147 57 72 53.0309 72 50.5294C72 48.0279 74.0147 46 76.5 46C78.9853 46 81 48.0279 81 50.5294Z" fill="#F6F2FF"/>
</g>
<path d="M81 50.5294C81 53.0309 78.9853 57 76.5 57C74.0147 57 72 53.0309 72 50.5294C72 48.0279 74.0147 46 76.5 46C78.9853 46 81 48.0279 81 50.5294Z" fill="#F6F2FF"/>
<g filter="url(#filter1_f_213_56)">
<path d="M69 50.5294C69 53.0309 66.9853 57 64.5 57C62.0147 57 60 53.0309 60 50.5294C60 48.0279 62.0147 46 64.5 46C66.9853 46 69 48.0279 69 50.5294Z" fill="#F6F2FF"/>
</g>
<path d="M69 50.5294C69 53.0309 66.9853 57 64.5 57C62.0147 57 60 53.0309 60 50.5294C60 48.0279 62.0147 46 64.5 46C66.9853 46 69 48.0279 69 50.5294Z" fill="#F6F2FF"/>
<defs>
<filter id="filter0_f_213_56" x="12" y="-14" width="129" height="131" filterUnits="userSpaceOnUse" color-interpolation-filters="sRGB">
<feFlood flood-opacity="0" result="BackgroundImageFix"/>
<feBlend mode="normal" in="SourceGraphic" in2="BackgroundImageFix" result="shape"/>
<feGaussianBlur stdDeviation="30" result="effect1_foregroundBlur_213_56"/>
</filter>
<filter id="filter1_f_213_56" x="0" y="-14" width="129" height="131" filterUnits="userSpaceOnUse" color-interpolation-filters="sRGB">
<feFlood flood-opacity="0" result="BackgroundImageFix"/>
<feBlend mode="normal" in="SourceGraphic" in2="BackgroundImageFix" result="shape"/>
<feGaussianBlur stdDeviation="30" result="effect1_foregroundBlur_213_56"/>
</filter>
<radialGradient id="paint0_radial_213_56" cx="0" cy="0" r="1" gradientUnits="userSpaceOnUse" gradientTransform="translate(47.2327 43.5291) rotate(32.0044) scale(46.1944 46.3126)">
<stop stop-color="#7344F7"/>
<stop offset="1" stop-color="#875CFF"/>
</radialGradient>
<radialGradient id="paint1_radial_213_56" cx="0" cy="0" r="1" gradientUnits="userSpaceOnUse" gradientTransform="translate(75.2469 55.0701) rotate(40.5293) scale(241.22 239.263)">
<stop stop-color="#7344F7"/>
<stop offset="1" stop-color="white" stop-opacity="0"/>
</radialGradient>
</defs>
</svg>
